<svg xmlns="http://www.w3.org/2000/svg" width="14" height="16" viewBox="0 0 14 16" fill="none">
<g clip-path="url(#clip0_1343_9541)">
<path d="M7.83673 2C7.83673 1.44781 8.27449 1 8.81633 1H12.7071C12.8663 1 12.9949 1.02688 13.1082 1.07594C13.1969 1.12438 13.3316 1.19594 13.4265 1.29062C13.4265 1.29219 13.4265 1.29375 13.4296 1.295C13.6194 1.48937 13.6867 1.74313 13.7143 1.99687C13.7143 1.99813 13.7143 1.99906 13.7143 2V6C13.7143 6.55312 13.2765 7 12.7347 7C12.1929 7 11.7551 6.55312 11.7551 6V4.41562L6.56939 9.70625C6.18674 10.0969 5.56837 10.0969 5.18571 9.70625C4.80306 9.31562 4.80306 8.68437 5.18571 8.29375L10.3684 3H8.81633C8.27449 3 7.83673 2.55219 7.83673 2ZM0 4C0 2.89531 0.877041 2 1.95918 2H4.89796C5.4398 2 5.87755 2.44781 5.87755 3C5.87755 3.55312 5.4398 4 4.89796 4H1.95918V13H10.7755V10C10.7755 9.44687 11.2133 9 11.7551 9C12.2969 9 12.7347 9.44687 12.7347 10V13C12.7347 14.1031 11.8561 15 10.7755 15H1.95918C0.877041 15 0 14.1031 0 13V4Z" fill="#4285F4"/>
</g>
<defs>
<clipPath id="clip0_1343_9541">
<rect width="13.7143" height="16" fill="white"/>
</clipPath>
</defs>
</svg>
